<svg width="180" height="76" viewBox="0 0 180 76" fill="none" xmlns="http://www.w3.org/2000/svg">
<g clip-path="url(#clip0_367_446)">
<path d="M78.7233 20.2294L75.7104 26.592H81.7214L78.7233 20.2294ZM78.945 16.4945L87.1446 34.0722H85.2466L82.4813 28.2893H74.9069L72.168 34.0722H70.2079L78.515 16.4945H78.945Z" fill="#213F99"/>
<path d="M104.995 19.4458L103.632 20.7366C102.653 19.7725 101.578 19.0417 100.411 18.5437C99.2435 18.0457 98.1059 17.797 96.9985 17.797C95.6201 17.797 94.3074 18.1353 93.0599 18.8127C91.813 19.49 90.8467 20.4081 90.1619 21.5669C89.4764 22.7263 89.1342 23.9514 89.1342 25.2416C89.1342 26.5643 89.488 27.8207 90.1975 29.0115C90.9069 30.2028 91.8873 31.1393 93.1379 31.8197C94.3891 32.5007 95.7595 32.8415 97.2497 32.8415C99.0586 32.8415 100.588 32.3319 101.839 31.3118C103.091 30.2925 103.831 28.9697 104.062 27.3448H98.4567V25.6481H106.035C106.019 28.3642 105.212 30.5215 103.615 32.1188C102.016 33.716 99.8793 34.5149 97.2018 34.5149C93.9512 34.5149 91.3768 33.4071 89.4807 31.1921C88.0224 29.488 87.2927 27.5162 87.2927 25.2778C87.2927 23.613 87.7116 22.063 88.5482 20.6291C89.3848 19.1952 90.5322 18.0733 91.9905 17.2652C93.4487 16.4564 95.098 16.0523 96.9389 16.0523C98.429 16.0523 99.8314 16.3213 101.146 16.8593C102.461 17.3966 103.744 18.2588 104.995 19.4458Z" fill="#213F99"/>
<path d="M107.605 16.4945H109.362V27.1054C109.362 28.3649 109.386 29.149 109.434 29.4598C109.522 30.1531 109.725 30.7328 110.044 31.1989C110.363 31.6644 110.852 32.0549 111.514 32.3699C112.175 32.685 112.841 32.8416 113.51 32.8416C114.092 32.8416 114.649 32.7181 115.183 32.4713C115.717 32.2244 116.164 31.8817 116.522 31.4439C116.88 31.0054 117.143 30.4755 117.31 29.854C117.431 29.4082 117.49 28.4926 117.49 27.1054V16.4945H119.248V27.1054C119.248 28.6756 119.094 29.9443 118.787 30.9121C118.481 31.8799 117.867 32.7218 116.947 33.4391C116.026 34.1557 114.912 34.515 113.606 34.515C112.187 34.515 110.972 34.176 109.96 33.4986C108.948 32.8219 108.271 31.926 107.928 30.8102C107.713 30.1255 107.605 28.8905 107.605 27.1054V16.4945Z" fill="#213F99"/>
<path d="M128.7 20.2294L125.687 26.592H131.698L128.7 20.2294ZM128.922 16.4945L137.121 34.0722H135.223L132.458 28.2893H124.884L122.145 34.0722H120.185L128.492 16.4945H128.922Z" fill="#213F99"/>
<path d="M136.194 30.7979L137.688 29.9013C138.74 31.8375 139.955 32.8053 141.333 32.8053C141.923 32.8053 142.477 32.6684 142.995 32.3933C143.513 32.1188 143.907 31.7503 144.178 31.2879C144.449 30.8261 144.584 30.3361 144.584 29.8178C144.584 29.2289 144.385 28.651 143.987 28.0854C143.437 27.3049 142.433 26.3647 140.975 25.2649C139.508 24.1577 138.596 23.3575 138.237 22.8632C137.616 22.0348 137.306 21.1388 137.306 20.1747C137.306 19.4102 137.489 18.7126 137.855 18.0837C138.221 17.4543 138.737 16.9581 139.403 16.5958C140.068 16.2335 140.791 16.0523 141.572 16.0523C142.401 16.0523 143.176 16.2574 143.897 16.6677C144.618 17.0779 145.381 17.8326 146.186 18.9318L144.751 20.0194C144.09 19.143 143.527 18.5658 143.06 18.2864C142.594 18.0076 142.086 17.8682 141.536 17.8682C140.827 17.8682 140.247 18.0837 139.798 18.5142C139.347 18.9441 139.122 19.474 139.122 20.1029C139.122 20.4854 139.202 20.8557 139.361 21.2144C139.521 21.573 139.812 21.9629 140.234 22.3854C140.465 22.6084 141.221 23.1942 142.505 24.1417C144.027 25.2649 145.07 26.2653 145.636 27.1416C146.202 28.0179 146.485 28.8979 146.485 29.7822C146.485 31.057 146.001 32.1642 145.033 33.1044C144.064 34.0445 142.887 34.5143 141.5 34.5143C140.433 34.5143 139.465 34.2294 138.596 33.6595C137.728 33.0903 136.927 32.1366 136.194 30.7979Z" fill="#213F99"/>
<path d="M69.3308 51.1531L70.8247 50.2571C71.8769 52.1927 73.0912 53.1612 74.4702 53.1612C75.0599 53.1612 75.6134 53.0236 76.1312 52.7491C76.6496 52.474 77.0439 52.1055 77.3154 51.6431C77.5857 51.1813 77.7215 50.6919 77.7215 50.173C77.7215 49.5841 77.5218 49.0068 77.1238 48.4406C76.574 47.6601 75.5697 46.72 74.1115 45.6207C72.6453 44.5129 71.7331 43.7128 71.3744 43.2184C70.7528 42.39 70.442 41.4941 70.442 40.5306C70.442 39.7654 70.625 39.0684 70.9924 38.439C71.3584 37.8095 71.8744 37.314 72.5397 36.951C73.2055 36.5887 73.9279 36.4076 74.7092 36.4076C75.5378 36.4076 76.313 36.6127 77.0341 37.0235C77.7552 37.4331 78.5181 38.1878 79.3234 39.2876L77.8885 40.3746C77.227 39.4983 76.6637 38.921 76.1975 38.6422C75.7313 38.3634 75.2233 38.2234 74.6729 38.2234C73.9641 38.2234 73.3842 38.439 72.934 38.8694C72.4838 39.2993 72.2589 39.8293 72.2589 40.4587C72.2589 40.8407 72.3382 41.2116 72.4979 41.5696C72.6576 41.9288 72.9481 42.3188 73.3707 42.7407C73.6017 42.9642 74.3584 43.5494 75.641 44.497C77.1631 45.6207 78.2073 46.6205 78.7731 47.4968C79.3382 48.3731 79.6213 49.2531 79.6213 50.138C79.6213 51.4122 79.1379 52.5194 78.1699 53.4596C77.2012 54.3998 76.0237 54.8702 74.6373 54.8702C73.5697 54.8702 72.6011 54.5846 71.7331 54.0154C70.864 53.4461 70.0636 52.4918 69.3308 51.1531Z" fill="#213F99"/>
<path d="M88.4647 40.584L85.4518 46.9466H91.4628L88.4647 40.584ZM88.687 36.8491L96.886 54.4268H94.9886L92.2226 48.6439H84.6483L81.9094 54.4268H79.9493L88.2564 36.8491H88.687Z" fill="#213F99"/>
<path d="M97.7872 54.4274V36.8497H98.1698L109.872 50.3241V36.8497H111.605V54.4274H111.21L99.6041 41.1176V54.4274H97.7872Z" fill="#213F99"/>
<path d="M112.302 38.5704V36.8497H121.937V38.5704H118.016V54.4274H116.223V38.5704H112.302Z" fill="#213F99"/>
<path d="M124.141 36.8497H122.384V54.4274H124.141V36.8497Z" fill="#213F99"/>
<path d="M133.294 40.584L130.282 46.9466H136.293L133.294 40.584ZM133.516 36.8491L141.716 54.4268H139.818L137.052 48.6439H129.478L126.739 54.4268H124.779L133.086 36.8491H133.516Z" fill="#213F99"/>
<path d="M159.567 39.801L158.204 41.0918C157.224 40.1283 156.149 39.3976 154.983 38.8995C153.815 38.4015 152.678 38.1522 151.57 38.1522C150.191 38.1522 148.879 38.4912 147.632 39.1679C146.385 39.8452 145.419 40.7633 144.733 41.9227C144.048 43.0815 143.705 44.3066 143.705 45.5968C143.705 46.9195 144.06 48.1766 144.769 49.3673C145.478 50.5586 146.458 51.4945 147.71 52.1749C148.96 52.8566 150.331 53.1968 151.821 53.1968C153.63 53.1968 155.16 52.6871 156.411 51.6677C157.662 50.6483 158.403 49.3256 158.634 47.7001H153.028V46.0033H160.606C160.591 48.7194 159.784 50.8767 158.186 52.474C156.588 54.0712 154.45 54.8702 151.774 54.8702C148.522 54.8702 145.949 53.7623 144.052 51.5473C142.594 49.8432 141.864 47.8714 141.864 45.633C141.864 43.9682 142.283 42.4183 143.119 40.9844C143.957 39.5505 145.103 38.4291 146.562 37.621C148.02 36.8122 149.67 36.4076 151.511 36.4076C153.001 36.4076 154.403 36.6765 155.718 37.2145C157.033 37.7524 158.315 38.614 159.567 39.801Z" fill="#213F99"/>
<path d="M170.568 38.116C169.267 38.116 168.033 38.4549 166.869 39.1329C165.703 39.8102 164.793 40.7234 164.138 41.8711C163.484 43.0195 163.157 44.2986 163.157 45.7098C163.157 47.7995 163.881 49.5632 165.33 51.002C166.778 52.4414 168.524 53.1605 170.568 53.1605C171.933 53.1605 173.195 52.8295 174.356 52.1682C175.518 51.5062 176.423 50.6016 177.075 49.4533C177.724 48.3056 178.05 47.0295 178.05 45.6257C178.05 44.2311 177.724 42.9691 177.075 41.841C176.423 40.7129 175.508 39.8102 174.327 39.1329C173.146 38.4549 171.893 38.116 170.568 38.116ZM170.49 36.407C173.153 36.407 175.382 37.2955 177.176 39.0721C178.969 40.8487 179.867 43.0354 179.867 45.6324C179.867 48.2055 178.972 50.3885 177.182 52.1805C175.392 53.973 173.209 54.8696 170.633 54.8696C168.026 54.8696 165.825 53.9773 164.032 52.1927C162.237 50.4088 161.34 48.2491 161.34 45.7159C161.34 44.0272 161.749 42.4619 162.566 41.02C163.383 39.5781 164.498 38.4488 165.909 37.6321C167.32 36.8153 168.847 36.407 170.49 36.407Z" fill="#213F99"/>
<path d="M70.5452 74.7826V57.2043H70.9278L82.6293 70.6787V57.2043H84.3627V74.7826H83.9684L72.3621 61.4722V74.7826H70.5452Z" fill="#213F99"/>
<path d="M95.2558 58.4712C93.9548 58.4712 92.722 58.8102 91.5568 59.4875C90.391 60.1655 89.4813 61.0786 88.8265 62.2263C88.1723 63.3747 87.8455 64.6538 87.8455 66.0656C87.8455 68.1541 88.5697 69.9184 90.0181 71.3572C91.4665 72.7967 93.2128 73.5158 95.2558 73.5158C96.6207 73.5158 97.8836 73.1848 99.0451 72.5228C100.206 71.8614 101.112 70.9568 101.763 69.8085C102.413 68.6608 102.738 67.3847 102.738 65.9815C102.738 64.5863 102.413 63.3243 101.763 62.1962C101.112 61.0682 100.196 60.1655 99.015 59.4875C97.8338 58.8102 96.5808 58.4712 95.2558 58.4712ZM95.1784 56.7628C97.8412 56.7628 100.07 57.6508 101.864 59.4273C103.658 61.2039 104.556 63.3907 104.556 65.9876C104.556 68.5607 103.66 70.7438 101.87 72.5357C100.08 74.3282 97.8971 75.2248 95.3215 75.2248C92.7141 75.2248 90.5138 74.3325 88.7196 72.5473C86.9254 70.7634 86.0286 68.6043 86.0286 66.0712C86.0286 64.3818 86.437 62.8171 87.2546 61.3752C88.0716 59.9333 89.1858 58.804 90.5974 57.9867C92.0083 57.1705 93.5353 56.7628 95.1784 56.7628Z" fill="#213F99"/>
<path d="M108.099 58.9256V64.9001L111.127 64.9247C112.301 64.9247 113.169 64.8129 113.731 64.59C114.294 64.3671 114.733 64.0103 115.048 63.5203C115.363 63.0302 115.521 62.4824 115.521 61.877C115.521 61.2874 115.361 60.7519 115.042 60.2699C114.723 59.7878 114.304 59.4433 113.785 59.2358C113.266 59.0288 112.404 58.9256 111.199 58.9256H108.099ZM106.342 57.2043H109.844C111.796 57.2043 113.118 57.2848 113.812 57.4438C114.855 57.6833 115.704 58.1961 116.357 58.9815C117.011 59.7669 117.338 60.7341 117.338 61.8825C117.338 62.8405 117.113 63.6824 116.662 64.4076C116.212 65.1335 115.569 65.6819 114.732 66.0528C113.896 66.4231 112.74 66.6134 111.266 66.6208L117.589 74.7827H115.415L109.092 66.6208H108.099V74.7827H106.342V57.2043Z" fill="#213F99"/>
<path d="M117.521 58.9256V57.2043H127.155V58.9256H123.235V74.7827H121.441V58.9256H117.521Z" fill="#213F99"/>
<path d="M127.865 57.2043H137.941V58.9256H129.622V64.434H137.869V66.1547H129.622V73.0619H137.869V74.7826H127.865V57.2043Z" fill="#213F99"/>
<path d="M28.1737 16.4144L28.1737 16.473C12.5347 17.0586 7.23648e-06 29.8828 4.69901e-06 45.6934C2.10516e-06 61.8554 13.1204 74.9724 29.2866 74.9724C45.1014 74.9724 57.929 62.441 58.5147 46.806L58.5733 46.806L58.5733 16.4144L28.1737 16.4144ZM7.43881 45.8691C7.43881 34.1575 16.752 24.6125 28.408 24.1441L51.0173 24.1441L51.0173 46.6889L50.9587 46.6889C50.5487 58.3419 41.0013 67.6527 29.2281 67.6527C17.2205 67.6527 7.4388 57.932 7.43881 45.8691Z" fill="url(#paint0_linear_367_446)"/>
<path d="M33.6195 12.3586C36.9549 12.3586 39.6595 9.65477 39.6595 6.32026C39.6595 2.98514 36.9549 0.281921 33.6195 0.281921C30.2835 0.281921 27.5796 2.98514 27.5796 6.32026C27.5796 9.65477 30.2835 12.3586 33.6195 12.3586Z" fill="#8CC863"/>
</g>
<defs>
<linearGradient id="paint0_linear_367_446" x1="29.2866" y1="74.9724" x2="29.2866" y2="16.4144" gradientUnits="userSpaceOnUse">
<stop stop-color="#00B4D6"/>
<stop offset="1" stop-color="#8CC863"/>
</linearGradient>
<clipPath id="clip0_367_446">
<rect width="180" height="75.5801" fill="white"/>
</clipPath>
</defs>
</svg>
