<svg width="778" height="793" viewBox="0 0 778 793" fill="none" xmlns="http://www.w3.org/2000/svg">
<g clip-path="url(#clip0_50_5586)">
<rect x="136" y="142" width="507" height="496" fill="white"/>
<path d="M575.004 78.9751H201.445C129.406 78.9751 71 137.308 71 209.274V350.295L192.558 280.992L297.247 221.079L484.925 333.466L484.996 339.395L433.22 367.763L288.271 287.844L236.922 317.205L236.033 532.482L236.14 532.553L279.829 507.63L280.415 343.549L287.703 339.36L334.395 365.029L333.062 532.5L384.981 561.294L579.75 449.936L579.306 507.346L384.696 617.514L215.966 712.664H574.987C647.025 712.664 705.431 654.331 705.431 582.383V209.274C705.431 137.326 647.025 78.9928 574.987 78.9928L575.004 78.9751ZM580.816 399.539L385.514 508.961L379.435 505.571L379.897 450.274L529.698 364.585L528.951 305.968L341.576 193.794L387.487 167.806L581.759 281.95L580.816 399.539Z" fill="#E51745"/>
<path d="M384.696 617.514L383.221 618.349L279.651 557.957L279.829 507.63L236.14 532.554L236.033 532.483V532.607L190.745 506.103L192.54 280.992L71 350.295V582.365C71 654.314 129.406 712.647 201.445 712.647H215.984L384.714 617.514H384.696Z" fill="#C0282E"/>
</g>
<defs>
<clipPath id="clip0_50_5586">
<rect width="778" height="793" fill="white"/>
</clipPath>
</defs>
</svg>
