<svg width="2837" height="817" viewBox="0 0 2837 817" fill="none" xmlns="http://www.w3.org/2000/svg">
<rect x="177" y="138" width="507" height="496" fill="white"/>
<path d="M428.28 557.486L376.552 528.701L377.884 361.261L331.339 335.595L324.085 339.776L323.491 503.839L323.363 553.305L429.114 612.437L428.007 613.707L624.039 502.922L624.215 445.061L428.28 557.486Z" fill="white"/>
<path d="M2490.91 499.722L2474.48 541.469H2502.34L2529.19 503.244L2531.66 499.722H2490.91Z" fill="white"/>
<path d="M1445.13 572.217C1434.42 561.362 1418.58 556.088 1396.66 556.088C1376.18 556.088 1358.64 561.555 1344.48 572.33L1343.31 559.754H1301.21V709.295H1344.83V610.813C1349.49 604.895 1354.66 600.698 1360.63 597.948C1366.95 595.037 1374.46 593.622 1383.59 593.622C1394.8 593.622 1403.27 596.291 1408.78 601.582C1414.25 606.825 1417.02 614.881 1417.02 625.527V709.312H1460.66V619.641C1460.66 598.35 1455.58 582.847 1445.11 572.233L1445.13 572.217Z" fill="white"/>
<path d="M1624.07 558.757L1622.78 559.995L1621.71 572.619C1607.07 562.07 1588.47 556.715 1566.42 556.715C1541.46 556.715 1523.51 561.796 1511.59 572.233C1499.87 582.493 1494.18 597.674 1494.18 618.66V635.514C1494.18 656.001 1500.18 671.584 1512.01 681.86C1524.11 692.362 1541.91 697.459 1566.42 697.459C1590.92 697.459 1609 692.442 1621.35 682.552V697.556C1621.35 708.025 1618.05 715.454 1611.23 720.279C1604.36 725.135 1593.91 727.499 1579.27 727.499C1568.29 727.499 1559.35 726.068 1552.69 723.27C1546 720.456 1541.97 716.339 1540.69 711.048L1540.22 709.167L1502.47 712.721L1500.24 712.93L1500.45 715.149C1501.93 731.359 1510.43 743.34 1525.75 750.721C1538.67 756.961 1556.18 760 1579.27 760C1606.64 760 1628.09 754.661 1643.04 744.144C1658.3 733.417 1666.04 717.899 1666.04 698.054V558.773H1624.07V558.757ZM1621.37 610.089V644.23C1616.2 650.003 1610.89 653.927 1604.68 656.548C1598 659.379 1589.96 660.745 1580.11 660.745C1565.37 660.745 1555.04 658.381 1548.52 653.525C1541.92 648.62 1538.86 641.062 1538.86 629.756V624.305C1538.86 613.273 1542.05 605.522 1548.63 600.633C1555.23 595.712 1565.53 593.316 1580.12 593.316C1590.14 593.316 1597.95 594.667 1604.69 597.545C1610.92 600.215 1616.23 604.203 1621.39 610.089H1621.37Z" fill="white"/>
<path d="M2030.37 571.542C2020.48 560.623 2005.83 555.316 1985.59 555.316C1966.84 555.316 1950.74 560.719 1937.74 571.365L1936.68 559.722H1897.59V708.893H1938.08V610.121C1942.36 604.203 1947.1 599.99 1952.57 597.24C1958.35 594.345 1965.22 592.93 1973.57 592.93C1983.79 592.93 1991.51 595.584 1996.53 600.842C2001.59 606.101 2004.14 614.206 2004.14 624.9V708.877H2044.63V618.998C2044.63 597.69 2039.95 582.172 2030.33 571.542H2030.37Z" fill="white"/>
<path d="M2444.56 555.155C2423.46 555.412 2405.77 560.88 2391.98 571.413L2390.84 559.642H2349.35V708.717H2392.34V609.993C2396.75 604.316 2402.69 600.006 2410.01 597.176C2417.84 594.249 2429.46 592.769 2444.56 592.769H2445.49L2446.82 591.419V555.123L2444.56 555.155Z" fill="white"/>
<path d="M2675.85 559.915L2674.62 574.034C2659.45 563.292 2640.13 557.84 2617.19 557.84C2591.34 557.84 2572.75 562.97 2560.41 573.536C2548.26 583.924 2542.35 599.314 2542.35 620.574V648.427C2542.35 669.3 2548.56 685.173 2560.83 695.594C2573.34 706.24 2591.79 711.418 2617.19 711.418C2642.6 711.418 2661.97 706.127 2674.67 695.69L2675.85 709.038H2720.42V559.915H2675.85ZM2588.5 626.315C2588.5 615.138 2591.82 607.291 2598.64 602.321C2605.49 597.32 2616.21 594.892 2631.38 594.892C2641.65 594.892 2650 596.291 2656.92 599.185C2663.38 601.887 2668.9 605.94 2674.26 611.906V657.529C2668.92 663.35 2663.42 667.274 2656.93 669.896C2649.93 672.726 2641.83 674.045 2631.38 674.045C2616.07 674.045 2605.33 671.648 2598.53 666.744C2591.69 661.79 2588.5 654.2 2588.5 642.879V626.315Z" fill="white"/>
<path d="M2516.22 559.69H2474.56V708.733H2516.22V559.69Z" fill="white"/>
<path d="M1772.85 154.502C1760.49 166.852 1760.49 187.421 1772.85 199.771H1772.86C1779.43 205.979 1787.71 209.034 1795.94 209.034C1804.18 209.034 1812.31 205.962 1818.52 199.771C1830.87 187.437 1830.87 166.868 1818.52 154.518C1812.33 147.957 1804.19 144.708 1795.94 144.708C1787.69 144.708 1779.4 148.005 1772.85 154.502Z" fill="white"/>
<path d="M1773.01 154.566L1772.96 154.614C1767.02 160.549 1763.75 168.557 1763.75 177.145C1763.75 185.732 1767.02 193.725 1772.96 199.659C1779.28 205.609 1787.44 208.889 1795.96 208.889C1804.48 208.889 1812.49 205.609 1818.43 199.659C1824.37 193.725 1827.64 185.716 1827.64 177.145C1827.64 168.557 1824.37 160.565 1818.43 154.614C1812.49 148.311 1804.51 144.853 1795.94 144.853C1787.37 144.853 1779.33 148.294 1772.99 154.566H1773.01Z" fill="white"/>
<path d="M1038.46 114.893L1084.31 57H999.442L974.533 113.172C982.333 112.513 990.582 112.063 999.378 112.063C1013.76 112.063 1026.68 113.06 1038.44 114.829V114.877L1038.46 114.893Z" fill="white"/>
<path d="M997.484 135.301C1006.91 135.301 1015.75 135.864 1024.19 136.748C1059 140.543 1085.36 151.945 1103.03 170.471C1120.68 188.997 1129.75 214.727 1129.75 247.372V357.418C1129.75 393.987 1118.27 421.968 1096.09 440.8C1073.88 459.663 1040.82 469.489 997.42 469.489C954.021 469.489 921.071 459.663 898.971 440.816C876.902 421.968 865.539 394.003 865.539 357.418V247.372C865.539 215.66 874.077 190.428 890.737 172.015C907.397 153.601 932.258 141.91 965.063 137.424C975.127 136.024 985.912 135.301 997.468 135.301H997.484ZM997.484 408.749C1021.65 408.749 1039.49 404.295 1051.28 393.987C1063.1 383.662 1068.68 367.597 1068.68 344.761V260.028C1068.68 237.434 1062.98 221.385 1051.12 210.996C1039.28 200.624 1021.45 196.056 997.5 196.056C973.554 196.056 955.819 200.64 944.086 211.012C932.338 221.401 926.753 237.466 926.753 260.044V344.778C926.753 367.356 932.226 383.421 943.91 393.81C955.594 404.182 973.313 408.766 997.5 408.766L997.484 408.749Z" fill="white"/>
<path d="M1260.31 434.641L1256.7 430.781V708.958H1192.07V208.214H1254.5L1256.72 234.925L1257.06 238.994L1260.15 236.34C1284.95 215.113 1316.73 204.451 1356.15 204.451C1398.02 204.451 1427.47 213.44 1446.46 230.953C1465.41 248.434 1474.34 274.743 1474.34 310.315V360.039C1474.34 395.579 1464.97 422.033 1445.77 439.626C1426.54 457.267 1397.06 466.369 1356.13 466.369C1311.98 466.369 1279.91 455.659 1260.3 434.641H1260.31ZM1257.14 292.03L1256.7 292.593V378.436L1257.15 378.999C1266 390.256 1275.96 398.473 1288.32 403.845C1300.65 409.216 1315.22 411.692 1333.2 411.692C1358.62 411.692 1377.8 407.463 1390.64 397.476C1403.61 387.393 1409.69 371.778 1409.69 350.036V320.511C1409.69 298.785 1403.59 283.057 1390.64 272.861C1377.8 262.746 1358.62 258.404 1333.18 258.404C1315.19 258.404 1300.62 261.009 1288.27 266.557C1275.92 272.122 1265.95 280.564 1257.12 292.047L1257.14 292.03Z" fill="white"/>
<path d="M1664.77 410.438C1677.21 410.438 1686.29 410.02 1691.6 409.586V463.362C1678.19 466.112 1661.59 467.463 1641.72 467.463C1604.57 467.463 1583.25 460.194 1571.15 445.367C1559.02 430.476 1555.95 407.769 1555.95 376.329V263.02H1526.47L1524.22 206.927H1556.02V139.16L1623.26 126.778V366.037C1623.26 375.22 1623.97 382.778 1625.33 388.776C1626.7 394.759 1628.74 399.245 1631.43 402.22L1631.48 402.269C1637.32 407.64 1648.33 410.47 1664.77 410.47V410.438Z" fill="white"/>
<path d="M2169.34 310.267V463.298H2102.09V320.639C2102.09 300.586 2096.67 285.34 2085.62 275.113C2074.6 264.901 2058.12 259.819 2036.26 259.819C2019.34 259.819 2005.41 262.408 1993.51 267.86C1981.62 273.311 1971.82 281.609 1963.12 292.947L1962.96 293.156V463.298H1895.71V206.911H1960.65L1962.96 234.796L1963.08 236.324L1964.26 235.327C1989.34 213.874 2020.98 203.148 2059.66 203.148C2108.58 203.148 2141 219.969 2157.69 252.904L2158.25 254.014L2159 253.017C2183.17 221.336 2221.29 203.132 2266.47 203.132C2302.14 203.132 2329.53 212.588 2348.01 230.631C2366.48 248.675 2376.16 275.402 2376.16 310.202V310.99H2376.22V463.233H2308.97V320.575C2308.97 300.521 2303.53 285.276 2292.51 275.048C2281.48 264.837 2265 259.755 2243.14 259.755C2209.59 259.755 2180.77 279.631 2169.37 309.993L2169.32 310.122V310.267H2169.34Z" fill="white"/>
<path d="M2653.43 234.764L2655.68 206.927H2720.62V463.249H2655.68L2653.43 435.83L2653.29 434.061L2652.08 435.348C2632.18 456.72 2599.68 467.463 2554.84 467.463C2514.01 467.463 2484.28 458.344 2464.78 440.414C2445.3 422.499 2435.86 395.675 2435.86 359.942V310.266C2435.86 274.534 2444.85 247.822 2464.11 230.02C2483.37 212.218 2513.09 203.196 2554.86 203.196C2594.47 203.196 2627.01 213.923 2652.15 235.375L2653.43 236.469V234.748V234.764ZM2653.26 378.211L2653.43 377.985V293.027L2653.26 292.818C2644.08 281.481 2634.16 273.199 2622.09 267.747C2610.03 262.296 2595.88 259.706 2578.22 259.706C2552.9 259.706 2534.07 264.048 2521.58 273.89C2509.05 283.764 2503.03 299.042 2503.03 320.526V350.052C2503.03 371.521 2508.92 386.685 2521.41 396.447C2533.85 406.176 2552.67 410.39 2578.22 410.39C2595.83 410.39 2609.99 407.913 2622.06 402.638C2634.12 397.364 2644.04 389.307 2653.24 378.194L2653.26 378.211Z" fill="white"/>
<path d="M1692.2 215.836L1692.25 215.885C1705.12 228.782 1705.12 250.331 1692.25 263.293C1679.41 276.158 1658.28 276.238 1644.5 263.261C1631.64 250.363 1631.64 228.83 1644.53 215.869C1658.3 202.071 1679.36 202.135 1692.2 215.82V215.836Z" fill="#E51745"/>
<path d="M2124.82 498.163L2124.87 498.211C2137.19 510.561 2137.19 531.194 2124.87 543.609C2112.57 555.927 2092.35 556.007 2079.14 543.593C2066.83 531.242 2066.83 510.626 2079.17 498.211C2092.37 484.992 2112.52 485.056 2124.83 498.163H2124.82Z" fill="#E51745"/>
<path d="M2081.05 563.967V709.006H2122.72V564.241C2109.8 570.625 2094.36 570.561 2081.05 563.967Z" fill="white"/>
<path d="M1825.75 462.783C1825.75 463.137 1825.46 463.426 1825.11 463.426H1766.27C1765.91 463.426 1765.64 463.137 1765.64 462.783V217.879C1765.64 217.879 1765.54 217.798 1765.5 217.75V462.767C1765.5 463.201 1765.85 463.571 1766.28 463.571H1825.12C1825.55 463.571 1825.91 463.217 1825.91 462.767V217.911C1825.91 217.911 1825.81 217.991 1825.76 218.039V462.783H1825.75Z" fill="white"/>
<path d="M1766.27 463.426H1825.1C1825.46 463.426 1825.75 463.137 1825.75 462.783V218.04C1808.8 232.561 1783.58 232.593 1765.64 217.895V462.783C1765.64 463.137 1765.93 463.426 1766.27 463.426Z" fill="white"/>
<path d="M2322.41 620.124C2322.41 599.588 2315.25 583.812 2301.14 573.214C2287.18 562.729 2266.38 557.422 2239.32 557.422C2212.26 557.422 2191.58 562.745 2177.75 573.23C2163.8 583.796 2156.74 599.572 2156.74 620.14V648.282C2156.74 668.851 2163.82 684.643 2177.78 695.192C2191.65 705.677 2212.45 711 2239.57 711C2264.72 711 2284.67 706.353 2298.86 697.17C2311.59 688.936 2319.24 677.261 2321.62 662.45L2321.68 662.032H2276.91L2276.81 662.209C2275.28 664.782 2273.07 666.84 2270.02 668.497C2263.63 671.97 2253.68 673.659 2239.56 673.659C2225.43 673.659 2215.8 671.279 2209.38 666.374C2203.43 661.807 2200.33 654.908 2199.93 645.259H2322.41V620.14V620.124ZM2212.39 599.813C2218.69 596.259 2227.49 594.538 2239.28 594.538C2251.08 594.538 2259.88 596.259 2266.25 599.813C2271.67 602.836 2275.32 607.227 2277.37 613.209H2201.6C2203.45 607.227 2206.98 602.852 2212.39 599.813Z" fill="white"/>
<path d="M1864.25 620.124C1864.25 599.588 1857.09 583.812 1842.98 573.214C1829.02 562.729 1808.22 557.422 1781.16 557.422C1754.1 557.422 1733.43 562.745 1719.59 573.23C1705.65 583.796 1698.58 599.572 1698.58 620.14V648.282C1698.58 668.851 1705.66 684.643 1719.63 695.192C1733.49 705.677 1754.29 711 1781.42 711C1806.57 711 1826.52 706.353 1840.71 697.17C1853.43 688.936 1861.09 677.261 1863.46 662.45L1863.53 662.032H1818.75L1818.65 662.209C1817.13 664.782 1814.91 666.84 1811.86 668.497C1805.48 671.97 1795.53 673.659 1781.4 673.659C1767.28 673.659 1757.65 671.279 1751.23 666.374C1745.27 661.807 1742.18 654.908 1741.77 645.259H1864.25V620.14V620.124ZM1754.23 599.813C1760.54 596.259 1769.33 594.538 1781.13 594.538C1792.93 594.538 1801.72 596.259 1808.09 599.813C1813.52 602.836 1817.16 607.227 1819.21 613.209H1743.44C1745.29 607.227 1748.82 602.852 1754.23 599.813Z" fill="white"/>
<path d="M620.004 74.9751H246.445C174.406 74.9751 116 133.308 116 205.274V346.295L237.558 276.992L342.247 217.079L529.925 329.466L529.996 335.395L478.22 363.763L333.271 283.844L281.922 313.205L281.033 528.482L281.14 528.553L324.829 503.63L325.415 339.549L332.703 335.36L379.395 361.029L378.062 528.5L429.981 557.294L624.75 445.936L624.306 503.346L429.696 613.514L260.966 708.664H619.987C692.025 708.664 750.431 650.331 750.431 578.383V205.274C750.431 133.326 692.025 74.9928 619.987 74.9928L620.004 74.9751ZM625.816 395.539L430.514 504.961L424.435 501.571L424.897 446.274L574.698 360.585L573.951 301.968L386.576 189.794L432.487 163.806L626.759 277.95L625.816 395.539Z" fill="#E51745"/>
<path d="M429.696 613.514L428.221 614.349L324.651 553.957L324.829 503.63L281.14 528.554L281.033 528.483V528.607L235.745 502.103L237.54 276.992L116 346.295V578.365C116 650.314 174.406 708.647 246.445 708.647H260.984L429.714 613.514H429.696Z" fill="#C0282E"/>
</svg>
